<?xml version="1.0" encoding="utf-8"?>
<!-- Generator: Adobe Illustrator 26.1.0, SVG Export Plug-In . SVG Version: 6.00 Build 0)  -->
<svg version="1.1" id="Layer_1" xmlns="http://www.w3.org/2000/svg" xmlns:xlink="http://www.w3.org/1999/xlink" x="0px" y="0px"
	 viewBox="0 0 500 372" style="enable-background:new 0 0 500 372;" xml:space="preserve">
<style type="text/css">
	.st0{fill:#FFFFFF;}
</style>
<g transform="translate(0.000000,372.000000) scale(0.100000,-0.100000)">
	<path class="st0" d="M3215,2740l-710-889l-22,22c-12,12-330,409-708,882c-377,473-691,861-698,862c-15,3-241-285-284-364
		c-99-177-125-386-73-587c42-166,55-184,850-1177c406-508,739-930,740-937c0-7-19-33-41-57c-48-52-158-111-226-121
		c-86-13-204,20-287,80c-16,11-380,460-809,996s-786,982-794,990c-13,13-17,12-40-15c-79-94-97-215-47-311
		c28-52,1333-1697,1439-1813c62-68,170-139,266-176c97-37,268-46,369-20c101,25,217,87,293,156l67,61l56-51c77-70,173-124,277-156
		c80-25,98-27,205-23c92,4,131,10,184,30c88,33,168,81,235,142s1449,1789,1482,1854c33,62,33,157,2,223c-29,61-77,117-89,104
		c-5-5-360-449-789-985c-428-536-795-987-814-1001c-165-126-368-113-507,32c-29,30-52,57-52,61s323,411,717,905
		c395,494,741,933,770,976c93,141,142,326,130,488c-15,188-76,322-243,535c-64,82-122,155-128,162C3927,3627,3765,3430,3215,2740z
		 M1791,2283c385-483,704-879,708-881c4-1,324,394,711,878s708,880,712,880c13,0,66-88,87-145c44-118,36-241-24-360
		c-25-51-232-316-753-965c-394-492-723-895-729-895c-13,0-1423,1754-1469,1827c-65,102-83,262-43,380c20,61,77,158,92,158
		C1087,3160,1406,2765,1791,2283z"/>
</g>
</svg>
